<?xml version="1.0" standalone="no"?>
<!DOCTYPE svg PUBLIC "-//W3C//DTD SVG 20010904//EN"
 "http://www.w3.org/TR/2001/REC-SVG-20010904/DTD/svg10.dtd">
<svg version="1.0" xmlns="http://www.w3.org/2000/svg"
 width="256.000000pt" height="256.000000pt" viewBox="0 0 256.000000 256.000000"
 preserveAspectRatio="xMidYMid meet">
<metadata>
Created by potrace 1.11, written by Peter Selinger 2001-2013
</metadata>
<g transform="translate(0.000000,256.000000) scale(0.100000,-0.100000)"
fill="#000000" stroke="none">
<path d="M2400 2539 c-265 -82 -465 -147 -734 -239 -82 -28 -150 -49 -151 -48
-1 2 -10 28 -19 59 -27 94 -68 105 -178 48 -254 -133 -562 -324 -768 -478
-143 -106 -156 -117 -255 -216 -123 -122 -216 -273 -250 -405 -30 -115 -37
-161 -40 -250 -3 -122 10 -226 42 -325 59 -187 173 -352 329 -476 288 -229
704 -271 1035 -104 155 79 314 229 472 445 71 98 163 232 185 270 14 25 29 47
32 50 9 8 191 322 249 430 30 57 49 105 47 117 -9 46 -27 63 -81 78 -30 9 -57
20 -60 25 -5 8 9 52 35 115 5 11 45 133 90 270 45 138 86 261 91 275 5 14 11
34 13 45 3 11 14 48 25 83 22 67 42 137 47 162 6 26 -16 67 -42 79 -32 14 -36
14 -114 -10z m-1360 -944 c36 -4 74 -12 85 -18 11 -6 21 -10 23 -9 7 6 62 -14
102 -36 108 -59 193 -138 254 -234 20 -31 36 -59 36 -61 0 -3 8 -22 17 -43 9
-22 18 -43 19 -49 14 -57 22 -122 22 -185 0 -213 -85 -378 -271 -527 -71 -57
-264 -118 -367 -116 -77 1 -191 24 -237 48 -15 8 -31 15 -35 15 -24 0 -123 73
-183 134 -104 105 -174 248 -178 363 -1 29 -4 53 -7 53 -3 0 -5 12 -4 28 1 15
3 27 4 27 0 0 3 24 5 52 4 58 38 169 68 223 107 190 295 317 497 336 36 3 67
7 69 10 2 2 7 2 10 0 3 -2 35 -7 71 -11z"/>
<path d="M722 1254 c-57 -34 -76 -68 -76 -135 1 -96 60 -152 160 -153 103 0
171 92 144 195 -28 102 -137 147 -228 93z"/>
<path d="M999 787 c-76 -57 -17 -173 70 -137 39 16 58 60 41 99 -17 42 -78 62
-111 38z"/>
</g>
</svg>
